<?xml version="1.0" standalone="no"?>
<!DOCTYPE svg PUBLIC "-//W3C//DTD SVG 20010904//EN"
 "http://www.w3.org/TR/2001/REC-SVG-20010904/DTD/svg10.dtd">
<svg version="1.0" xmlns="http://www.w3.org/2000/svg"
 width="1280.000000pt" height="570.000000pt" viewBox="0 0 1280.000000 570.000000"
 preserveAspectRatio="xMidYMid meet">
<g transform="translate(0.000000,570.000000) scale(0.100000,-0.100000)"
fill="#000000" stroke="none">
<path d="M3659 5047 c-101 -29 -201 -113 -241 -205 -26 -59 -35 -173 -18 -242
16 -65 79 -160 132 -199 52 -38 68 -39 68 -3 0 18 -12 39 -40 65 -61 60 -85
118 -85 207 0 59 6 85 24 120 92 178 307 223 449 95 70 -63 96 -121 96 -210
-1 -84 -28 -150 -86 -206 -28 -27 -38 -45 -38 -68 0 -17 2 -31 5 -31 19 0 67
35 104 75 100 108 123 265 60 401 -35 74 -122 156 -194 183 -74 28 -174 35
-236 18z"/>
<path d="M3590 4797 c-24 -12 -25 -16 -28 -135 -1 -70 2 -130 8 -141 5 -11 23
-22 40 -26 l30 -7 0 -93 c0 -65 4 -94 13 -97 6 -2 58 -2 114 0 l102 4 3 90 3
90 35 12 35 11 0 140 c0 139 0 139 -25 152 -34 17 -296 17 -330 0z"/>
<path d="M4812 4388 c-74 -103 -82 -116 -82 -147 0 -17 5 -40 12 -51 10 -16 6
-27 -27 -75 -29 -43 -36 -61 -29 -73 18 -28 165 -122 179 -114 8 4 30 28 50
55 33 43 39 47 79 47 48 0 56 7 124 104 31 44 42 69 42 96 0 43 -4 47 -137
141 -129 91 -155 93 -211 17z"/>
<path d="M2585 4415 c-16 -9 -73 -46 -125 -83 -86 -62 -95 -71 -98 -103 -2
-28 6 -49 44 -105 65 -97 89 -117 131 -111 32 6 37 2 76 -49 41 -52 76 -69 92
-44 3 6 33 28 66 51 33 22 63 47 66 55 3 8 -11 39 -31 69 -31 44 -36 57 -27
74 23 42 13 85 -39 157 -27 39 -55 76 -62 82 -24 19 -62 22 -93 7z"/>
<path d="M3614 4239 c-317 -28 -646 -160 -894 -357 -73 -58 -208 -192 -262
-259 -27 -35 -56 -63 -63 -63 -17 0 -99 -128 -158 -246 -165 -329 -217 -733
-141 -1102 45 -220 182 -528 278 -626 28 -29 87 -95 132 -147 428 -501 1154
-702 1789 -494 287 94 563 274 742 485 36 41 93 105 127 143 72 76 172 259
224 408 147 419 124 895 -62 1294 -56 120 -154 276 -177 282 -10 3 -37 30 -60
59 -63 81 -233 240 -340 317 -52 37 -152 96 -224 132 -211 105 -392 156 -622
175 -132 11 -159 11 -289 -1z m446 -254 c262 -58 492 -173 691 -347 32 -28 61
-60 65 -72 4 -11 33 -52 64 -91 115 -140 199 -291 255 -458 59 -179 70 -250
69 -462 0 -200 -13 -292 -64 -446 -36 -112 -146 -319 -218 -415 -39 -50 -73
-101 -76 -112 -11 -32 -160 -166 -260 -234 -159 -106 -326 -177 -516 -220
-140 -31 -446 -34 -580 -5 -198 42 -372 115 -538 226 -102 69 -248 201 -258
234 -3 12 -25 47 -49 77 -68 88 -134 196 -175 283 -235 513 -160 1093 200
1532 32 39 60 79 64 90 3 11 33 44 65 72 215 190 471 311 756 359 107 18 403
11 505 -11z"/>
<path d="M3575 3561 c-116 -8 -145 -20 -145 -59 1 -34 93 -162 118 -162 9 0
49 7 87 15 189 40 415 -9 586 -126 134 -92 215 -187 284 -334 57 -120 77 -207
77 -330 0 -114 -17 -201 -63 -311 -33 -78 -41 -84 -95 -64 -15 6 -36 8 -47 4
-19 -6 -20 -12 -13 -166 3 -88 11 -168 16 -179 7 -12 21 -19 40 -19 43 0 327
144 335 169 7 24 -10 61 -30 61 -27 0 -26 21 9 107 105 264 96 574 -24 830
-98 210 -252 371 -458 476 -142 73 -193 85 -398 90 -99 3 -224 2 -279 -2z"/>
<path d="M3095 3351 c-77 -20 -146 -40 -153 -44 -18 -12 -15 -44 8 -67 11 -11
20 -25 20 -31 0 -5 -18 -37 -41 -70 -54 -80 -102 -184 -135 -294 -26 -84 -28
-102 -28 -280 -1 -227 14 -296 99 -470 86 -176 208 -311 377 -419 70 -44 163
-86 193 -86 12 0 64 -9 116 -20 130 -27 341 -27 474 0 53 11 109 20 123 20 28
0 181 71 206 96 9 8 16 25 16 36 0 26 -88 146 -113 154 -12 4 -52 -11 -111
-40 -128 -64 -225 -88 -361 -88 -395 -1 -730 287 -800 687 -8 48 -15 102 -15
120 0 63 31 208 61 285 28 73 120 230 135 230 4 0 22 -9 40 -21 19 -11 44 -19
56 -17 21 3 25 14 45 113 33 166 37 213 23 230 -19 23 -82 17 -235 -24z"/>
<path d="M1306 3544 c-8 -20 -8 -1918 0 -1938 5 -14 58 -16 490 -16 350 0 484
3 484 11 0 6 -16 38 -35 70 -170 279 -265 689 -235 1016 26 291 100 529 236
760 30 51 54 97 54 102 0 8 -154 11 -494 11 -441 0 -495 -2 -500 -16z"/>
<path d="M5240 3550 c0 -6 16 -36 35 -66 121 -189 213 -442 250 -692 19 -124
19 -360 0 -484 -34 -228 -117 -468 -220 -637 -19 -32 -35 -64 -35 -70 0 -14
5021 -16 5035 -2 6 5 354 217 775 471 421 255 773 470 783 478 9 8 17 21 17
28 0 7 -285 185 -632 395 -348 211 -709 429 -802 486 l-168 103 -2519 0
c-1750 0 -2519 -3 -2519 -10z"/>
</g>
</svg>
